<svg width="492" height="150" viewBox="0 0 492 150" fill="none" xmlns="http://www.w3.org/2000/svg">
<path d="M170.296 97.64C169.443 97.64 168.803 97.512 168.376 97.256C167.992 97.0427 167.736 96.7227 167.608 96.296C167.48 95.8693 167.416 95.3573 167.416 94.76V55.784C167.416 55.2293 167.48 54.7387 167.608 54.312C167.779 53.8427 168.056 53.5013 168.44 53.288C168.867 53.0747 169.507 52.968 170.36 52.968C171.213 52.968 171.832 53.096 172.216 53.352C172.643 53.5653 172.92 53.8853 173.048 54.312C173.176 54.7387 173.24 55.2507 173.24 55.848V71.336L192.12 53.864C192.632 53.352 193.101 53.0107 193.528 52.84C193.955 52.6693 194.381 52.6693 194.808 52.84C195.235 53.0107 195.704 53.352 196.216 53.864C197.027 54.6747 197.411 55.3787 197.368 55.976C197.368 56.5307 196.984 57.1707 196.216 57.896L177.144 75.24L196.472 92.712C197.283 93.48 197.688 94.1627 197.688 94.76C197.688 95.3573 197.283 96.04 196.472 96.808C195.917 97.32 195.427 97.6613 195 97.832C194.573 98.0027 194.147 98.0027 193.72 97.832C193.336 97.6613 192.888 97.2987 192.376 96.744L173.24 79.144V94.824C173.24 95.4213 173.176 95.9333 173.048 96.36C172.92 96.7867 172.643 97.1067 172.216 97.32C171.789 97.5333 171.149 97.64 170.296 97.64ZM227.713 97.576C226.774 97.576 226.091 97.384 225.665 97C225.281 96.616 225.046 96.0187 224.961 95.208L225.217 92.008C224.79 92.6907 224.129 93.48 223.233 94.376C222.337 95.2293 221.163 95.9973 219.713 96.68C218.262 97.32 216.491 97.64 214.401 97.64C212.353 97.64 210.433 97.2347 208.641 96.424C206.891 95.6133 205.334 94.4827 203.969 93.032C202.646 91.5813 201.601 89.9173 200.833 88.04C200.107 86.1627 199.745 84.1573 199.745 82.024C199.745 79.9333 200.107 77.9707 200.833 76.136C201.601 74.2587 202.667 72.616 204.033 71.208C205.398 69.8 206.955 68.6907 208.705 67.88C210.497 67.0693 212.395 66.664 214.401 66.664C216.278 66.664 217.878 66.92 219.201 67.432C220.523 67.9013 221.654 68.5413 222.593 69.352C223.574 70.12 224.427 70.9947 225.153 71.976L225.025 69.288C224.982 68.3493 225.174 67.688 225.601 67.304C226.07 66.8773 226.795 66.664 227.777 66.664C228.587 66.664 229.163 66.792 229.505 67.048C229.889 67.304 230.145 67.6667 230.273 68.136C230.401 68.6053 230.465 69.1813 230.465 69.864V94.568C230.465 95.1653 230.401 95.6987 230.273 96.168C230.145 96.6373 229.889 96.9787 229.505 97.192C229.121 97.448 228.523 97.576 227.713 97.576ZM215.361 92.264C217.067 92.264 218.625 91.816 220.033 90.92C221.483 90.024 222.614 88.8293 223.425 87.336C224.278 85.8 224.705 84.0507 224.705 82.088C224.705 80.0827 224.257 78.3333 223.361 76.84C222.507 75.304 221.355 74.1093 219.905 73.256C218.497 72.36 216.939 71.912 215.233 71.912C213.227 71.912 211.478 72.3813 209.985 73.32C208.534 74.216 207.382 75.432 206.529 76.968C205.675 78.504 205.249 80.2533 205.249 82.216C205.249 84.136 205.675 85.864 206.529 87.4C207.382 88.8933 208.555 90.088 210.049 90.984C211.585 91.8373 213.355 92.264 215.361 92.264ZM253.775 97.384C251.684 97.384 249.785 97 248.079 96.232C246.372 95.464 244.921 94.3973 243.727 93.032C242.532 91.624 241.593 89.9813 240.911 88.104C240.271 86.2267 239.972 84.1573 240.015 81.896C240.015 79.6773 240.335 77.6293 240.975 75.752C241.615 73.8747 242.532 72.2533 243.727 70.888C244.964 69.48 246.415 68.4133 248.079 67.688C249.785 66.92 251.684 66.536 253.775 66.536C255.737 66.536 257.572 66.92 259.279 67.688C261.028 68.456 262.543 69.544 263.823 70.952C265.145 72.3173 266.169 73.96 266.895 75.88C267.663 77.8 268.047 79.8693 268.047 82.088C268.047 84.3067 267.663 86.3547 266.895 88.232C266.169 90.1093 265.145 91.7307 263.823 93.096C262.543 94.4613 261.028 95.528 259.279 96.296C257.572 97.0213 255.737 97.384 253.775 97.384ZM240.463 110.248C239.652 110.248 239.033 110.12 238.607 109.864C238.223 109.651 237.945 109.331 237.775 108.904C237.647 108.477 237.583 107.965 237.583 107.368V69.544C237.583 68.9467 237.647 68.4347 237.775 68.008C237.903 67.5813 238.159 67.2613 238.543 67.048C238.969 66.792 239.588 66.664 240.399 66.664C241.337 66.664 242.02 66.8133 242.447 67.112C242.916 67.4107 243.193 67.944 243.279 68.712V107.304C243.321 107.901 243.279 108.413 243.151 108.84C243.023 109.309 242.745 109.651 242.319 109.864C241.935 110.12 241.316 110.248 240.463 110.248ZM252.943 92.136C254.735 92.136 256.356 91.7093 257.807 90.856C259.257 89.96 260.388 88.744 261.199 87.208C262.052 85.672 262.479 83.9227 262.479 81.96C262.479 79.9547 262.052 78.2053 261.199 76.712C260.388 75.2187 259.257 74.0667 257.807 73.256C256.399 72.4027 254.777 71.976 252.943 71.976C251.151 71.976 249.529 72.4027 248.079 73.256C246.671 74.1093 245.54 75.2827 244.687 76.776C243.876 78.2693 243.47 79.9973 243.47 81.96C243.47 83.9227 243.876 85.672 244.687 87.208C245.54 88.744 246.671 89.96 248.079 90.856C249.529 91.7093 251.151 92.136 252.943 92.136ZM277.981 97.64C277.17 97.64 276.551 97.512 276.125 97.256C275.741 97.0427 275.485 96.7227 275.357 96.296C275.229 95.8693 275.165 95.3573 275.165 94.76V69.48C275.165 68.8827 275.229 68.3707 275.357 67.944C275.485 67.5173 275.741 67.1973 276.125 66.984C276.551 66.7707 277.191 66.664 278.045 66.664C278.855 66.664 279.453 66.792 279.837 67.048C280.221 67.2613 280.477 67.5813 280.605 68.008C280.733 68.4347 280.797 68.968 280.797 69.608V94.824C280.797 95.4213 280.733 95.9333 280.605 96.36C280.477 96.7867 280.199 97.1067 279.773 97.32C279.389 97.5333 278.791 97.64 277.981 97.64ZM277.981 58.984C277.042 58.984 276.338 58.856 275.869 58.6C275.399 58.3013 275.079 57.896 274.909 57.384C274.781 56.872 274.717 56.2747 274.717 55.592C274.717 54.9093 274.802 54.3333 274.973 53.864C275.143 53.352 275.463 52.9893 275.933 52.776C276.402 52.52 277.106 52.392 278.045 52.392C278.941 52.392 279.623 52.52 280.093 52.776C280.562 53.032 280.861 53.416 280.989 53.928C281.159 54.44 281.245 55.0373 281.245 55.72C281.245 56.4027 281.159 57 280.989 57.512C280.861 57.9813 280.562 58.344 280.093 58.6C279.623 58.856 278.919 58.984 277.981 58.984ZM291.461 97.64C290.693 97.64 290.096 97.4907 289.669 97.192C289.285 96.936 289.029 96.552 288.901 96.04C288.773 95.4853 288.709 94.888 288.709 94.248V56.232C288.709 55.592 288.773 55.0373 288.901 54.568C289.072 54.056 289.349 53.672 289.733 53.416C290.16 53.1173 290.757 52.968 291.525 52.968H309.381C311.77 52.968 313.861 53.5013 315.653 54.568C317.488 55.6347 318.917 57.0853 319.941 58.92C320.965 60.7547 321.456 62.76 321.413 64.936C321.456 66.0453 321.328 67.1333 321.029 68.2C320.73 69.2667 320.282 70.2693 319.685 71.208C319.13 72.104 318.426 72.8507 317.573 73.448C318.725 74.1733 319.706 75.112 320.517 76.264C321.328 77.416 321.946 78.696 322.373 80.104C322.8 81.512 323.013 82.984 323.013 84.52C322.97 86.3547 322.629 88.0827 321.989 89.704C321.349 91.2827 320.432 92.6693 319.237 93.864C318.042 95.0587 316.656 95.9973 315.077 96.68C313.498 97.32 311.813 97.64 310.021 97.64H291.461ZM294.469 92.136H309.381C311.045 92.136 312.474 91.816 313.669 91.176C314.864 90.536 315.781 89.5973 316.421 88.36C317.061 87.1227 317.381 85.608 317.381 83.816C317.381 82.28 317.168 81.0427 316.741 80.104C316.314 79.1653 315.738 78.4613 315.013 77.992C314.288 77.48 313.498 77.1173 312.645 76.904C311.834 76.6907 311.024 76.584 310.213 76.584C309.445 76.5413 308.741 76.52 308.101 76.52H304.197C303.344 76.52 302.725 76.3067 302.341 75.88C301.957 75.4533 301.765 74.7707 301.765 73.832C301.765 72.936 301.957 72.296 302.341 71.912C302.768 71.528 303.408 71.336 304.261 71.336H308.165C308.848 71.336 309.616 71.3147 310.469 71.272C311.322 71.2293 312.154 71.0587 312.965 70.76C313.818 70.4613 314.501 69.9067 315.013 69.096C315.568 68.2427 315.845 67.048 315.845 65.512C315.845 63.1227 315.205 61.3733 313.925 60.264C312.645 59.112 310.533 58.536 307.589 58.536H294.469V92.136ZM333.106 97.64C332.295 97.64 331.676 97.512 331.25 97.256C330.866 97.0427 330.61 96.7227 330.482 96.296C330.354 95.8693 330.29 95.3573 330.29 94.76V69.48C330.29 68.8827 330.354 68.3707 330.482 67.944C330.61 67.5173 330.866 67.1973 331.25 66.984C331.676 66.7707 332.316 66.664 333.17 66.664C333.98 66.664 334.578 66.792 334.962 67.048C335.346 67.2613 335.602 67.5813 335.73 68.008C335.858 68.4347 335.922 68.968 335.922 69.608V94.824C335.922 95.4213 335.858 95.9333 335.73 96.36C335.602 96.7867 335.324 97.1067 334.898 97.32C334.514 97.5333 333.916 97.64 333.106 97.64ZM333.106 58.984C332.167 58.984 331.463 58.856 330.994 58.6C330.524 58.3013 330.204 57.896 330.034 57.384C329.906 56.872 329.842 56.2747 329.842 55.592C329.842 54.9093 329.927 54.3333 330.098 53.864C330.268 53.352 330.588 52.9893 331.058 52.776C331.527 52.52 332.231 52.392 333.17 52.392C334.066 52.392 334.748 52.52 335.218 52.776C335.687 53.032 335.986 53.416 336.114 53.928C336.284 54.44 336.37 55.0373 336.37 55.72C336.37 56.4027 336.284 57 336.114 57.512C335.986 57.9813 335.687 58.344 335.218 58.6C334.748 58.856 334.044 58.984 333.106 58.984ZM347.098 97.64C346.287 97.64 345.669 97.512 345.242 97.256C344.858 97.0427 344.602 96.7227 344.474 96.296C344.389 95.8267 344.346 95.2933 344.346 94.696V69.48C344.346 68.84 344.41 68.3067 344.538 67.88C344.666 67.4533 344.922 67.1547 345.306 66.984C345.69 66.7707 346.309 66.664 347.162 66.664C347.93 66.664 348.506 66.7707 348.89 66.984C349.317 67.1547 349.594 67.432 349.722 67.816C349.893 68.1573 349.978 68.5627 349.978 69.032L349.722 70.952C350.021 70.3973 350.362 69.8427 350.746 69.288C351.173 68.7333 351.685 68.2427 352.282 67.816C352.922 67.3467 353.669 66.9627 354.522 66.664C355.418 66.3653 356.506 66.216 357.786 66.216C358.426 66.216 359.023 66.28 359.578 66.408C360.175 66.4933 360.73 66.6427 361.242 66.856C361.797 67.0693 362.266 67.3253 362.65 67.624C363.034 67.88 363.333 68.1787 363.546 68.52C363.802 68.8187 363.93 69.1813 363.93 69.608C363.93 70.5467 363.631 71.3573 363.034 72.04C362.437 72.68 361.818 73 361.178 73C360.623 73 360.218 72.936 359.962 72.808C359.706 72.6373 359.45 72.4667 359.194 72.296C358.981 72.1253 358.661 71.976 358.234 71.848C357.807 71.6773 357.125 71.592 356.186 71.592C355.546 71.592 354.863 71.72 354.138 71.976C353.455 72.232 352.794 72.616 352.154 73.128C351.514 73.5973 350.981 74.216 350.554 74.984C350.17 75.752 349.978 76.648 349.978 77.672V94.824C349.978 95.4213 349.914 95.9333 349.786 96.36C349.658 96.7867 349.381 97.1067 348.954 97.32C348.57 97.5333 347.951 97.64 347.098 97.64ZM381.721 97.64C379.801 97.64 377.966 97.256 376.217 96.488C374.467 95.72 372.931 94.632 371.609 93.224C370.329 91.816 369.305 90.1733 368.536 88.296C367.811 86.376 367.449 84.2853 367.449 82.024C367.449 79.8053 367.811 77.7573 368.536 75.88C369.305 74.0027 370.329 72.3813 371.609 71.016C372.931 69.608 374.467 68.52 376.217 67.752C377.966 66.984 379.801 66.6 381.721 66.6C383.811 66.6 385.689 66.984 387.353 67.752C389.059 68.52 390.51 69.608 391.705 71.016C392.942 72.3813 393.881 74.024 394.521 75.944C395.161 77.8213 395.481 79.8693 395.481 82.088C395.523 84.3493 395.203 86.4187 394.521 88.296C393.881 90.1733 392.963 91.816 391.769 93.224C390.574 94.632 389.123 95.72 387.417 96.488C385.753 97.256 383.854 97.64 381.721 97.64ZM382.553 92.2C384.345 92.2 385.945 91.7733 387.353 90.92C388.803 90.0667 389.934 88.8933 390.745 87.4C391.598 85.864 392.025 84.1147 392.025 82.152C392.025 80.1467 391.598 78.3973 390.745 76.904C389.934 75.368 388.803 74.1733 387.353 73.32C385.945 72.4667 384.345 72.04 382.553 72.04C380.761 72.04 379.139 72.4667 377.689 73.32C376.238 74.1733 375.086 75.368 374.233 76.904C373.422 78.3973 373.017 80.1467 373.017 82.152C373.017 84.1147 373.422 85.864 374.233 87.4C375.086 88.8933 376.238 90.0667 377.689 90.92C379.182 91.7733 380.803 92.2 382.553 92.2ZM395.097 97.64C394.158 97.64 393.475 97.4693 393.049 97.128C392.622 96.7867 392.366 96.2107 392.281 95.4V55.336C392.281 54.696 392.323 54.1627 392.409 53.736C392.537 53.3093 392.793 52.9893 393.177 52.776C393.603 52.52 394.222 52.392 395.033 52.392C395.843 52.392 396.441 52.52 396.825 52.776C397.251 52.9893 397.529 53.3093 397.657 53.736C397.785 54.1627 397.849 54.6747 397.849 55.272V94.696C397.849 95.2933 397.785 95.8267 397.657 96.296C397.529 96.7227 397.273 97.0427 396.889 97.256C396.505 97.512 395.907 97.64 395.097 97.64Z" fill="black"/>
<ellipse cx="75.2478" cy="75.2556" rx="65.8113" ry="65.529" fill="#FFDC23"/>
<circle cx="75" cy="75" r="74" stroke="black" stroke-width="2"/>
<path d="M84.9332 47.249C82.9271 47.249 80.9318 47.0991 78.9592 47.0991C76.8148 47.0991 74.7816 47.5399 72.834 48.4485C71.7852 48.9377 70.7027 49.3632 69.6579 49.8811C68.6786 50.3665 67.6049 50.5988 66.6331 51.0805C65.7467 51.5198 59.5809 53.8945 58.5417 54.3622C57.5025 54.83 56.5779 55.3925 55.6681 55.8782C53.5321 57.0183 51.5638 58 49.2404 59.693C48.366 60.3301 47.2225 61.0072 46.2912 61.7253C45.3001 62.4894 44.2415 63.1818 43.2748 63.9659C42.599 64.514 41.928 65.1118 41.8296 65.9899C41.7784 66.4464 41.6128 67.8965 41.2246 68.0889" stroke="black" stroke-linecap="round"/>
<path d="M41.028 68.6006C40.9815 68.974 40.1674 69.5786 39.9508 69.9482C39.5699 70.5984 39.2383 71.0317 39.2383 71.8198C39.2383 72.4686 39.2383 73.1174 39.2383 73.7663C39.2383 74.2712 39.4563 75.3196 39.6526 75.7876C40.0544 76.7457 40.3782 77.9043 40.6965 78.8987C41.0906 80.1295 41.9334 81.3758 42.0637 82.6835C42.2684 84.7389 42.1917 87.4706 43.3397 89.2633C44.4452 90.9898 46.241 91.9143 48.0376 92.6738C48.8654 93.0237 49.432 92.8568 50.2747 92.8568C51.3483 92.8568 52.3787 92.8682 53.415 92.9982C55.7949 93.2969 58.2907 93.5372 60.3832 94.782C61.9725 95.7276 63.5356 96.5911 65.5628 97.2695" stroke="black" stroke-linecap="round"/>
<path d="M65.5635 96.9973C66.4625 97.4698 67.5158 97.6274 68.6891 97.6274C69.7049 97.6274 70.4604 97.7812 71.5021 97.7812C72.2828 97.7812 76.8855 97.2292 77.6366 96.9936C78.6353 96.8761 79.7868 96.2453 80.4641 95.7334" stroke="black" stroke-linecap="round"/>
<path d="M40.2324 70.1385C40.731 70.1385 41.1496 70.0979 41.6021 70.3264C41.9502 70.5023 42.2768 70.7535 42.6674 70.7535C43.5204 70.7535 44.0534 70.1385 44.9502 70.1385C46.0661 70.1385 47.1866 70.7216 47.6589 71.6758C47.9611 72.2862 48.1794 73.1069 48.1794 74.0471C48.1794 75.7729 47.7198 77.7617 45.9394 78.2092C45.4301 78.4951 43.8125 78.2092 43.2762 77.8932C42.2036 77.2974 41.7591 76.9123 41.4499 76.2876" stroke="black" stroke-linecap="round"/>
<path d="M45.6035 72.9897C45.5647 72.7349 44.0658 72.4809 43.2211 72.9896C43.113 73.3896 43.8972 74.2628 44.3052 74.4544C44.7582 74.6673 45.3684 74.9052 45.8418 74.5939C46.1872 74.3667 46.4141 73.3744 45.8418 73.113" stroke="black" stroke-linecap="round"/>
<path d="M84.5863 47.0995C83.7235 46.9936 82.9473 45.796 82.9473 45.0517C82.9473 44.169 83.7549 43.0039 84.8098 43.0039C85.7418 43.0039 87.02 43.4789 87.2602 44.5397C87.3718 45.0327 87.4175 45.4684 87.4175 46.0024C87.4175 46.8087 86.5889 46.6783 86.3744 47.0995" stroke="black" stroke-linecap="round"/>
<path d="M86.4238 47.0991C87.4872 47.0991 88.4458 47.4404 89.5021 47.4404C90.5868 47.4404 91.857 47.2232 92.8808 47.6111" stroke="black" stroke-linecap="round"/>
<path d="M91.3906 51.1966C91.3906 50.5058 92.3053 49.6645 92.6844 49.0783C93.0644 48.4906 93.9098 47.6759 94.5024 47.3467C96.0279 46.4992 96.9405 44.5391 98.9249 44.5391C99.591 44.5391 101.099 44.6488 101.452 45.3159C101.82 45.9736 102.897 50.2927 103.061 51.0286C103.248 51.8649 103.355 52.7189 103.533 53.5839C103.677 54.2833 104.094 56.1201 103.491 56.7193C102.447 57.7575 101.401 58.8885 100.066 59.5521C98.4911 60.3351 97.2443 59.7395 96.4219 58.2408C95.8231 57.1495 95.2884 56.1634 94.8914 54.9793" stroke="black" stroke-linecap="round"/>
<path d="M74.5045 61.9453C74.3284 61.9453 74.162 61.9453 74.0078 61.9453" stroke="black" stroke-linecap="round"/>
<path d="M75 62.3146C76.2295 62.6232 77.0029 62.9694 78.0489 62.9694C78.8057 62.9694 80.2592 62.9707 80.9526 62.6232C81.7884 62.2044 82.1497 61.8201 82.9852 61.1045C83.6846 60.5055 84.1165 60.1086 84.4371 59.3857" stroke="black" stroke-linecap="round"/>
<path d="M103.311 52.2188C103.374 52.7378 104.244 53.482 104.599 53.8439C105.203 54.4618 105.757 55.1853 106.417 55.7098C107.79 56.8005 108.654 58.4509 109.902 59.7253C112.835 62.7209 116.256 65.1131 119.44 67.7736C120.212 68.4186 121.378 68.5842 122.1 69.2439C122.91 69.9843 124.227 70.5266 125.282 70.826C126.922 71.2912 128.391 71.8283 130.131 71.8751C132.088 71.9277 134.049 72.1846 136.007 72.1846C138.945 72.1846 136.657 72.1846 139.569 72.1846" stroke="black" stroke-linecap="round"/>
<path d="M66.5566 99.3174C66.5566 103.362 67.715 107.282 69.1199 111.052C69.9079 113.166 70.9835 115.106 72.065 117.073C72.9798 118.737 73.9106 120.336 75.2478 121.688C76.9437 123.402 78.8379 124.833 80.5865 126.474C81.6918 127.511 82.4859 128.169 82.9474 130.034" stroke="black" stroke-linecap="round"/>
<path d="M86.4238 70.1357C86.4238 71.3552 87.4022 72.0466 87.9018 73.1737C88.4015 74.3009 89.2912 75.214 90.1517 76.0965C91.1839 77.155 92.0204 78.4167 93.0092 79.5214C93.9796 80.6056 95.0507 81.5797 95.9488 82.7323C96.9924 84.0717 97.784 85.4415 98.3054 87.0711C98.9026 88.9382 98.8391 90.7156 98.8391 92.6613" stroke="black" stroke-linecap="round"/>
<path d="M140.559 75.2556C140.559 111.168 111.32 140.285 75.2478 140.285C39.1753 140.285 9.93652 111.168 9.93652 75.2556C9.93652 39.3431 39.1753 10.2266 75.2478 10.2266C111.32 10.2266 140.559 39.3431 140.559 75.2556Z" stroke="black"/>
<path d="M76.5646 63.1285L75 65.8162M79.0232 63.1285V66.0402M81.9288 62.4565L83.9404 65.3682" stroke="black"/>
<path d="M88.6377 22.8222C88.4481 22.5851 86.8164 17.0547 83.4773 17.0547" stroke="black" stroke-linecap="round"/>
<path d="M83.4756 17.0546C83.1775 17.0546 80.5778 16.9284 80.1365 17.0545C78.749 17.4508 78.6509 18.0863 78.0117 18.2687M78.0117 18.2687C77.6992 18.3579 78.5751 18.0388 78.0117 18.2687ZM78.0117 18.2687C77.683 18.4328 73.1947 19.4815 72.8966 19.4815" stroke="black" stroke-linecap="round"/>
<path d="M77.8213 20.8407C77.4501 20.7352 73.3398 19.4829 72.853 19.4829" stroke="black" stroke-linecap="round"/>
<path d="M77.4507 20.7363C78.8162 21.1909 79.7263 21.8727 80.2765 23.5768C80.4748 23.7829 81.2357 29.136 81.3193 29.3727" stroke="black" stroke-linecap="round"/>
<path d="M81.3524 29.5C81.9595 32.232 83.781 38.9101 92.584 39.5172" stroke="black" stroke-linecap="round"/>
<path d="M92.25 39.75C97.5 39.75 104.659 38.25 108 35.25" stroke="black" stroke-linecap="round"/>
<path d="M88.637 22.8223C92.2797 28.2862 107.856 35.0652 108 35.2496" stroke="black" stroke-linecap="round"/>
<path d="M88.2257 28.0605C91.125 42.7496 100.125 32.2496 100.125 32.2496" stroke="black" stroke-linecap="round"/>
<circle cx="82.87" cy="20.3934" r="1.62486" stroke="black"/>
<circle cx="82.5661" cy="20.09" r="0.607104" fill="black"/>
<path d="M94.1016 39.8208L94.7087 47.106" stroke="black"/>
<path d="M91.3695 39.5176L90.1553 47.4099" stroke="black"/>
</svg>
